G75*
G70*
%OFA0B0*%
%FSLAX24Y24*%
%IPPOS*%
%LPD*%
%AMOC8*
5,1,8,0,0,1.08239X$1,22.5*
%
%ADD10C,0.0000*%
%ADD11C,0.0070*%
%ADD12C,0.0030*%
%ADD13C,0.0080*%
%ADD14C,0.0060*%
%ADD15R,0.0200X0.0200*%
%ADD16C,0.0050*%
D10*
X002000Y000430D02*
X002000Y016176D01*
X021495Y016176D01*
X021495Y000430D01*
X002000Y000430D01*
X001929Y006796D02*
X001929Y010064D01*
X004120Y007305D02*
X004122Y007355D01*
X004128Y007405D01*
X004138Y007454D01*
X004152Y007502D01*
X004169Y007549D01*
X004190Y007594D01*
X004215Y007638D01*
X004243Y007679D01*
X004275Y007718D01*
X004309Y007755D01*
X004346Y007789D01*
X004386Y007819D01*
X004428Y007846D01*
X004472Y007870D01*
X004518Y007891D01*
X004565Y007907D01*
X004613Y007920D01*
X004663Y007929D01*
X004712Y007934D01*
X004763Y007935D01*
X004813Y007932D01*
X004862Y007925D01*
X004911Y007914D01*
X004959Y007899D01*
X005005Y007881D01*
X005050Y007859D01*
X005093Y007833D01*
X005134Y007804D01*
X005173Y007772D01*
X005209Y007737D01*
X005241Y007699D01*
X005271Y007659D01*
X005298Y007616D01*
X005321Y007572D01*
X005340Y007526D01*
X005356Y007478D01*
X005368Y007429D01*
X005376Y007380D01*
X005380Y007330D01*
X005380Y007280D01*
X005376Y007230D01*
X005368Y007181D01*
X005356Y007132D01*
X005340Y007084D01*
X005321Y007038D01*
X005298Y006994D01*
X005271Y006951D01*
X005241Y006911D01*
X005209Y006873D01*
X005173Y006838D01*
X005134Y006806D01*
X005093Y006777D01*
X005050Y006751D01*
X005005Y006729D01*
X004959Y006711D01*
X004911Y006696D01*
X004862Y006685D01*
X004813Y006678D01*
X004763Y006675D01*
X004712Y006676D01*
X004663Y006681D01*
X004613Y006690D01*
X004565Y006703D01*
X004518Y006719D01*
X004472Y006740D01*
X004428Y006764D01*
X004386Y006791D01*
X004346Y006821D01*
X004309Y006855D01*
X004275Y006892D01*
X004243Y006931D01*
X004215Y006972D01*
X004190Y007016D01*
X004169Y007061D01*
X004152Y007108D01*
X004138Y007156D01*
X004128Y007205D01*
X004122Y007255D01*
X004120Y007305D01*
X016620Y011555D02*
X016622Y011605D01*
X016628Y011655D01*
X016638Y011704D01*
X016652Y011752D01*
X016669Y011799D01*
X016690Y011844D01*
X016715Y011888D01*
X016743Y011929D01*
X016775Y011968D01*
X016809Y012005D01*
X016846Y012039D01*
X016886Y012069D01*
X016928Y012096D01*
X016972Y012120D01*
X017018Y012141D01*
X017065Y012157D01*
X017113Y012170D01*
X017163Y012179D01*
X017212Y012184D01*
X017263Y012185D01*
X017313Y012182D01*
X017362Y012175D01*
X017411Y012164D01*
X017459Y012149D01*
X017505Y012131D01*
X017550Y012109D01*
X017593Y012083D01*
X017634Y012054D01*
X017673Y012022D01*
X017709Y011987D01*
X017741Y011949D01*
X017771Y011909D01*
X017798Y011866D01*
X017821Y011822D01*
X017840Y011776D01*
X017856Y011728D01*
X017868Y011679D01*
X017876Y011630D01*
X017880Y011580D01*
X017880Y011530D01*
X017876Y011480D01*
X017868Y011431D01*
X017856Y011382D01*
X017840Y011334D01*
X017821Y011288D01*
X017798Y011244D01*
X017771Y011201D01*
X017741Y011161D01*
X017709Y011123D01*
X017673Y011088D01*
X017634Y011056D01*
X017593Y011027D01*
X017550Y011001D01*
X017505Y010979D01*
X017459Y010961D01*
X017411Y010946D01*
X017362Y010935D01*
X017313Y010928D01*
X017263Y010925D01*
X017212Y010926D01*
X017163Y010931D01*
X017113Y010940D01*
X017065Y010953D01*
X017018Y010969D01*
X016972Y010990D01*
X016928Y011014D01*
X016886Y011041D01*
X016846Y011071D01*
X016809Y011105D01*
X016775Y011142D01*
X016743Y011181D01*
X016715Y011222D01*
X016690Y011266D01*
X016669Y011311D01*
X016652Y011358D01*
X016638Y011406D01*
X016628Y011455D01*
X016622Y011505D01*
X016620Y011555D01*
D11*
X014061Y013826D02*
X014061Y014617D01*
X013665Y014617D01*
X013534Y014485D01*
X013534Y014222D01*
X013665Y014090D01*
X014061Y014090D01*
X014326Y014090D02*
X014326Y014485D01*
X014457Y014617D01*
X014589Y014485D01*
X014589Y014090D01*
X014853Y014090D02*
X014853Y014617D01*
X014721Y014617D01*
X014589Y014485D01*
X015117Y014485D02*
X015117Y014090D01*
X015513Y014090D01*
X015645Y014222D01*
X015513Y014354D01*
X015117Y014354D01*
X015117Y014485D02*
X015249Y014617D01*
X015513Y014617D01*
X016041Y014881D02*
X016041Y014090D01*
X016172Y014090D02*
X015909Y014090D01*
X016437Y014090D02*
X016833Y014090D01*
X016964Y014222D01*
X016964Y014485D01*
X016833Y014617D01*
X016437Y014617D01*
X016437Y014881D02*
X016437Y014090D01*
X017229Y014222D02*
X017229Y014485D01*
X017361Y014617D01*
X017624Y014617D01*
X017756Y014485D01*
X017756Y014222D01*
X017624Y014090D01*
X017361Y014090D01*
X017229Y014222D01*
X018021Y014222D02*
X018021Y014485D01*
X018153Y014617D01*
X018416Y014617D01*
X018548Y014485D01*
X018548Y014222D01*
X018416Y014090D01*
X018153Y014090D01*
X018021Y014222D01*
X018813Y014090D02*
X018813Y014485D01*
X018945Y014617D01*
X019076Y014485D01*
X019076Y014090D01*
X019340Y014090D02*
X019340Y014617D01*
X019208Y014617D01*
X019076Y014485D01*
X016172Y014881D02*
X016041Y014881D01*
X012477Y014617D02*
X012214Y014090D01*
X011950Y014617D01*
X011685Y014749D02*
X011553Y014881D01*
X011290Y014881D01*
X011158Y014749D01*
X011158Y014617D01*
X011685Y014090D01*
X011158Y014090D01*
D12*
X015614Y013192D02*
X015799Y013192D01*
X015861Y013130D01*
X015799Y013068D01*
X015676Y013068D01*
X015614Y013007D01*
X015676Y012945D01*
X015861Y012945D01*
X015982Y012945D02*
X015982Y013192D01*
X015982Y012945D02*
X016168Y012945D01*
X016229Y013007D01*
X016229Y013192D01*
X016351Y013192D02*
X016413Y013192D01*
X016536Y013068D01*
X016536Y012945D02*
X016536Y013192D01*
X016720Y013192D02*
X016720Y012945D01*
X016782Y012945D02*
X016658Y012945D01*
X016903Y012945D02*
X016903Y013130D01*
X016965Y013192D01*
X017088Y013192D01*
X017150Y013130D01*
X017272Y013130D02*
X017272Y013007D01*
X017333Y012945D01*
X017518Y012945D01*
X017518Y012822D02*
X017518Y013192D01*
X017333Y013192D01*
X017272Y013130D01*
X017150Y013315D02*
X017150Y012945D01*
X016782Y013192D02*
X016720Y013192D01*
X016720Y013315D02*
X016720Y013377D01*
X017640Y013130D02*
X017640Y013068D01*
X017887Y013068D01*
X017887Y013007D02*
X017887Y013130D01*
X017825Y013192D01*
X017702Y013192D01*
X017640Y013130D01*
X017702Y012945D02*
X017825Y012945D01*
X017887Y013007D01*
X018008Y012945D02*
X018008Y013315D01*
X018255Y013315D02*
X018008Y012945D01*
X018255Y012945D02*
X018255Y013315D01*
X018745Y013192D02*
X018745Y012883D01*
X018807Y012822D01*
X018868Y012822D01*
X018930Y012945D02*
X018745Y012945D01*
X018930Y012945D02*
X018992Y013007D01*
X018992Y013192D01*
X019113Y013130D02*
X019175Y013192D01*
X019360Y013192D01*
X019360Y013315D02*
X019360Y012945D01*
X019175Y012945D01*
X019113Y013007D01*
X019113Y013130D01*
X012985Y008190D02*
X012985Y007820D01*
X012800Y007820D01*
X012738Y007882D01*
X012738Y008005D01*
X012800Y008067D01*
X012985Y008067D01*
X012617Y008067D02*
X012617Y007820D01*
X012617Y007943D02*
X012493Y008067D01*
X012432Y008067D01*
X012310Y008067D02*
X012248Y008067D01*
X012186Y008005D01*
X012125Y008067D01*
X012063Y008005D01*
X012063Y007820D01*
X011941Y007820D02*
X011818Y007820D01*
X011880Y007820D02*
X011880Y008190D01*
X011941Y008190D01*
X012186Y008005D02*
X012186Y007820D01*
X012310Y007820D02*
X012310Y008067D01*
X011696Y007882D02*
X011634Y007943D01*
X011449Y007943D01*
X011449Y008005D02*
X011449Y007820D01*
X011634Y007820D01*
X011696Y007882D01*
X011634Y008067D02*
X011511Y008067D01*
X011449Y008005D01*
X011328Y008067D02*
X011142Y008067D01*
X011081Y008005D01*
X011081Y007882D01*
X011142Y007820D01*
X011328Y007820D01*
X011328Y008190D01*
X011388Y007067D02*
X011326Y007005D01*
X011326Y006943D01*
X011573Y006943D01*
X011573Y006882D02*
X011573Y007005D01*
X011511Y007067D01*
X011388Y007067D01*
X011205Y007067D02*
X011205Y006820D01*
X011205Y006943D02*
X011081Y007067D01*
X011020Y007067D01*
X010898Y007005D02*
X010836Y007067D01*
X010651Y007067D01*
X010530Y007067D02*
X010344Y007067D01*
X010283Y007005D01*
X010283Y006882D01*
X010344Y006820D01*
X010530Y006820D01*
X010530Y006697D02*
X010530Y007067D01*
X010713Y006943D02*
X010836Y006943D01*
X010898Y007005D01*
X010898Y006820D02*
X010713Y006820D01*
X010651Y006882D01*
X010713Y006943D01*
X010161Y006882D02*
X010100Y006943D01*
X009914Y006943D01*
X009914Y007005D02*
X009914Y006820D01*
X010100Y006820D01*
X010161Y006882D01*
X010100Y007067D02*
X009976Y007067D01*
X009914Y007005D01*
X009793Y007005D02*
X009793Y006882D01*
X009731Y006820D01*
X009546Y006820D01*
X009425Y006882D02*
X009425Y007005D01*
X009363Y007067D01*
X009239Y007067D01*
X009178Y007005D01*
X009178Y006943D01*
X009425Y006943D01*
X009425Y006882D02*
X009363Y006820D01*
X009239Y006820D01*
X009546Y007067D02*
X009731Y007067D01*
X009793Y007005D01*
X008688Y007067D02*
X008688Y006697D01*
X008688Y006820D02*
X008503Y006820D01*
X008441Y006882D01*
X008441Y007005D01*
X008503Y007067D01*
X008688Y007067D01*
X008320Y007067D02*
X008320Y006820D01*
X008320Y006943D02*
X008196Y007067D01*
X008135Y007067D01*
X007951Y007067D02*
X007828Y007067D01*
X007766Y007005D01*
X007766Y006820D01*
X007951Y006820D01*
X008013Y006882D01*
X007951Y006943D01*
X007766Y006943D01*
X007644Y006882D02*
X007583Y006820D01*
X007398Y006820D01*
X007398Y006758D02*
X007398Y007067D01*
X007583Y007067D01*
X007644Y007005D01*
X007644Y006882D01*
X007521Y006697D02*
X007459Y006697D01*
X007398Y006758D01*
X007276Y006882D02*
X007214Y006820D01*
X007029Y006820D01*
X007029Y007067D01*
X006908Y007005D02*
X006846Y007067D01*
X006723Y007067D01*
X006661Y007005D01*
X006661Y006943D01*
X006908Y006943D01*
X006908Y006882D02*
X006908Y007005D01*
X006908Y006882D02*
X006846Y006820D01*
X006723Y006820D01*
X007276Y006882D02*
X007276Y007067D01*
X011388Y006820D02*
X011511Y006820D01*
X011573Y006882D01*
X011695Y006820D02*
X011880Y006943D01*
X011695Y007067D01*
X011880Y007190D02*
X011880Y006820D01*
X012001Y006820D02*
X012187Y006820D01*
X012248Y006882D01*
X012248Y007005D01*
X012187Y007067D01*
X012001Y007067D01*
X012370Y007005D02*
X012370Y006820D01*
X012555Y006820D01*
X012617Y006882D01*
X012555Y006943D01*
X012370Y006943D01*
X012370Y007005D02*
X012432Y007067D01*
X012555Y007067D01*
X012738Y007005D02*
X012738Y006820D01*
X012738Y007005D02*
X012800Y007067D01*
X012923Y007067D01*
X012985Y007005D01*
X012985Y007190D02*
X012985Y006820D01*
X011485Y001440D02*
X011485Y001070D01*
X011485Y001255D02*
X011423Y001317D01*
X011300Y001317D01*
X011238Y001255D01*
X011238Y001070D01*
X011055Y001132D02*
X010993Y001070D01*
X011055Y001132D02*
X011055Y001379D01*
X011117Y001317D02*
X010993Y001317D01*
X010871Y001317D02*
X010748Y001317D01*
X010809Y001379D02*
X010809Y001132D01*
X010748Y001070D01*
X010626Y001070D02*
X010440Y001070D01*
X010379Y001132D01*
X010379Y001255D01*
X010440Y001317D01*
X010626Y001317D01*
X010626Y000947D01*
X010257Y001070D02*
X010257Y001132D01*
X010196Y001132D01*
X010196Y001070D01*
X010257Y001070D01*
X010073Y001070D02*
X009826Y001440D01*
X009458Y001440D02*
X009705Y001070D01*
X009336Y001070D02*
X009336Y001317D01*
X009151Y001317D01*
X009090Y001255D01*
X009090Y001070D01*
X008968Y001132D02*
X008968Y001255D01*
X008906Y001317D01*
X008783Y001317D01*
X008721Y001255D01*
X008721Y001193D01*
X008968Y001193D01*
X008968Y001132D02*
X008906Y001070D01*
X008783Y001070D01*
X008600Y001070D02*
X008415Y001070D01*
X008353Y001132D01*
X008353Y001255D01*
X008415Y001317D01*
X008600Y001317D01*
X008600Y000947D01*
X008232Y001070D02*
X008232Y001440D01*
X008170Y001317D02*
X008046Y001317D01*
X007985Y001255D01*
X007985Y001070D01*
X007863Y001070D02*
X007740Y001070D01*
X007802Y001070D02*
X007802Y001317D01*
X007863Y001317D01*
X007802Y001440D02*
X007802Y001502D01*
X007618Y001317D02*
X007618Y001070D01*
X007618Y001193D02*
X007494Y001317D01*
X007433Y001317D01*
X007311Y001317D02*
X007311Y001132D01*
X007249Y001070D01*
X007064Y001070D01*
X007064Y001317D01*
X006942Y001255D02*
X006881Y001317D01*
X006696Y001317D01*
X006757Y001193D02*
X006881Y001193D01*
X006942Y001255D01*
X006942Y001070D02*
X006757Y001070D01*
X006696Y001132D01*
X006757Y001193D01*
X006574Y001132D02*
X006512Y001132D01*
X006512Y001070D01*
X006574Y001070D01*
X006574Y001132D01*
X006390Y001132D02*
X006390Y001255D01*
X006328Y001317D01*
X006143Y001317D01*
X006022Y001317D02*
X005775Y001317D01*
X006022Y001070D01*
X005775Y001070D01*
X005653Y001070D02*
X005406Y001440D01*
X005285Y001317D02*
X005223Y001317D01*
X005162Y001255D01*
X005100Y001317D01*
X005038Y001255D01*
X005038Y001070D01*
X005162Y001070D02*
X005162Y001255D01*
X005285Y001317D02*
X005285Y001070D01*
X004917Y001132D02*
X004917Y001255D01*
X004855Y001317D01*
X004732Y001317D01*
X004670Y001255D01*
X004670Y001132D01*
X004732Y001070D01*
X004855Y001070D01*
X004917Y001132D01*
X004548Y001132D02*
X004487Y001070D01*
X004363Y001070D01*
X004302Y001132D01*
X004302Y001255D01*
X004363Y001317D01*
X004487Y001317D01*
X004548Y001255D01*
X004548Y001132D01*
X004180Y001132D02*
X004180Y001255D01*
X004118Y001317D01*
X003933Y001317D01*
X003933Y001440D02*
X003933Y001070D01*
X004118Y001070D01*
X004180Y001132D01*
X003812Y001070D02*
X003688Y001070D01*
X003750Y001070D02*
X003750Y001440D01*
X003812Y001440D01*
X003505Y001317D02*
X003381Y001317D01*
X003319Y001255D01*
X003319Y001070D01*
X003505Y001070D01*
X003566Y001132D01*
X003505Y001193D01*
X003319Y001193D01*
X003198Y001070D02*
X003198Y001317D01*
X003136Y001317D01*
X003074Y001255D01*
X003013Y001317D01*
X002951Y001255D01*
X002951Y001070D01*
X002830Y001070D02*
X002644Y001070D01*
X002583Y001132D01*
X002583Y001255D01*
X002644Y001317D01*
X002830Y001317D01*
X002830Y000947D01*
X003074Y001070D02*
X003074Y001255D01*
X006143Y001070D02*
X006328Y001070D01*
X006390Y001132D01*
X008170Y001317D02*
X008232Y001255D01*
X010196Y001255D02*
X010257Y001255D01*
X010257Y001317D01*
X010196Y001317D01*
X010196Y001255D01*
X017333Y001070D02*
X017580Y001070D01*
X017456Y001070D02*
X017456Y001440D01*
X017580Y001317D01*
X017701Y001379D02*
X017701Y001132D01*
X017763Y001070D01*
X017886Y001070D01*
X017948Y001132D01*
X017701Y001379D01*
X017763Y001440D01*
X017886Y001440D01*
X017948Y001379D01*
X017948Y001132D01*
X018438Y001317D02*
X018561Y001070D01*
X018685Y001317D01*
X018806Y001255D02*
X018806Y001193D01*
X019053Y001193D01*
X019053Y001132D02*
X019053Y001255D01*
X018991Y001317D01*
X018868Y001317D01*
X018806Y001255D01*
X018868Y001070D02*
X018991Y001070D01*
X019053Y001132D01*
X019175Y001317D02*
X019237Y001317D01*
X019360Y001193D01*
X019360Y001070D02*
X019360Y001317D01*
D13*
X005894Y011533D02*
X005894Y012360D01*
X005894Y011533D02*
X001681Y011533D01*
X001681Y015077D01*
X003768Y015077D01*
X005618Y015077D02*
X005894Y015077D01*
X005894Y014250D01*
X001681Y015077D02*
X000539Y015077D01*
X000539Y011533D01*
X001681Y011533D01*
D14*
X011500Y005305D02*
X011500Y003805D01*
X011750Y003555D01*
X012250Y003555D01*
X012500Y003805D01*
X012500Y005305D01*
X012750Y005555D01*
X013250Y005555D01*
X013500Y005305D01*
X013750Y005555D01*
X014250Y005555D01*
X014500Y005305D01*
X014500Y003805D01*
X014250Y003555D01*
X013750Y003555D01*
X013500Y003805D01*
X013500Y005305D01*
X012500Y005305D02*
X012250Y005555D01*
X011750Y005555D01*
X011500Y005305D01*
X012500Y003805D02*
X012750Y003555D01*
X013250Y003555D01*
X013500Y003805D01*
D15*
X014000Y004055D03*
X013000Y004055D03*
X012000Y004055D03*
X012000Y005055D03*
X013000Y005055D03*
X014000Y005055D03*
D16*
X013946Y003280D02*
X013796Y003280D01*
X013721Y003205D01*
X013796Y003055D02*
X013721Y002980D01*
X013721Y002905D01*
X013796Y002830D01*
X013946Y002830D01*
X014021Y002905D01*
X013946Y003055D02*
X013796Y003055D01*
X013946Y003055D02*
X014021Y003130D01*
X014021Y003205D01*
X013946Y003280D01*
X014178Y003280D02*
X014328Y003280D01*
X014253Y003280D02*
X014253Y002830D01*
X014328Y002830D02*
X014178Y002830D01*
X013560Y002830D02*
X013560Y003280D01*
X013335Y003280D01*
X013260Y003205D01*
X013260Y003055D01*
X013335Y002980D01*
X013560Y002980D01*
M02*
