%
M48
M72
T01C0.0236
T02C0.0315
T03C0.0360
T04C0.0400
T05C0.1180
T06C0.1260
%
T01
X15500Y6930
X16125Y7305
X16125Y4430
X16125Y1555
X15500Y10430
T02
X13375Y13430
X13375Y14930
X9625Y12180
T03
X8125Y3805
X8125Y4555
X8125Y5305
X9250Y2430
X10000Y2430
X14000Y6930
X14000Y7680
X14000Y9055
X14000Y9805
X14000Y10555
X12625Y12180
X11875Y12180
X11125Y12180
X10375Y12180
X8875Y12180
X6500Y9305
T04
X12000Y5055
X13000Y5055
X14000Y5055
X14000Y4055
X13000Y4055
X12000Y4055
X20750Y5055
X20750Y2180
X20750Y7930
X20125Y11680
X20125Y13305
X20125Y14930
T05
X5894Y13305
X3531Y13305
X4713Y15155
T06
X4750Y7305
X17250Y11555
M30
