G75*
G70*
%OFA0B0*%
%FSLAX24Y24*%
%IPPOS*%
%LPD*%
%AMOC8*
5,1,8,0,0,1.08239X$1,22.5*
%
%ADD10C,0.0000*%
%ADD11C,0.1700*%
%ADD12OC8,0.1000*%
%ADD13OC8,0.0600*%
%ADD14OC8,0.0630*%
%ADD15C,0.0472*%
%ADD16C,0.0160*%
%ADD17C,0.0356*%
%ADD18C,0.0100*%
%ADD19C,0.0240*%
D10*
X002000Y000430D02*
X002000Y016176D01*
X021495Y016176D01*
X021495Y000430D01*
X002000Y000430D01*
X001929Y006796D02*
X001929Y010064D01*
X004120Y007305D02*
X004122Y007355D01*
X004128Y007405D01*
X004138Y007454D01*
X004152Y007502D01*
X004169Y007549D01*
X004190Y007594D01*
X004215Y007638D01*
X004243Y007679D01*
X004275Y007718D01*
X004309Y007755D01*
X004346Y007789D01*
X004386Y007819D01*
X004428Y007846D01*
X004472Y007870D01*
X004518Y007891D01*
X004565Y007907D01*
X004613Y007920D01*
X004663Y007929D01*
X004712Y007934D01*
X004763Y007935D01*
X004813Y007932D01*
X004862Y007925D01*
X004911Y007914D01*
X004959Y007899D01*
X005005Y007881D01*
X005050Y007859D01*
X005093Y007833D01*
X005134Y007804D01*
X005173Y007772D01*
X005209Y007737D01*
X005241Y007699D01*
X005271Y007659D01*
X005298Y007616D01*
X005321Y007572D01*
X005340Y007526D01*
X005356Y007478D01*
X005368Y007429D01*
X005376Y007380D01*
X005380Y007330D01*
X005380Y007280D01*
X005376Y007230D01*
X005368Y007181D01*
X005356Y007132D01*
X005340Y007084D01*
X005321Y007038D01*
X005298Y006994D01*
X005271Y006951D01*
X005241Y006911D01*
X005209Y006873D01*
X005173Y006838D01*
X005134Y006806D01*
X005093Y006777D01*
X005050Y006751D01*
X005005Y006729D01*
X004959Y006711D01*
X004911Y006696D01*
X004862Y006685D01*
X004813Y006678D01*
X004763Y006675D01*
X004712Y006676D01*
X004663Y006681D01*
X004613Y006690D01*
X004565Y006703D01*
X004518Y006719D01*
X004472Y006740D01*
X004428Y006764D01*
X004386Y006791D01*
X004346Y006821D01*
X004309Y006855D01*
X004275Y006892D01*
X004243Y006931D01*
X004215Y006972D01*
X004190Y007016D01*
X004169Y007061D01*
X004152Y007108D01*
X004138Y007156D01*
X004128Y007205D01*
X004122Y007255D01*
X004120Y007305D01*
X016620Y011555D02*
X016622Y011605D01*
X016628Y011655D01*
X016638Y011704D01*
X016652Y011752D01*
X016669Y011799D01*
X016690Y011844D01*
X016715Y011888D01*
X016743Y011929D01*
X016775Y011968D01*
X016809Y012005D01*
X016846Y012039D01*
X016886Y012069D01*
X016928Y012096D01*
X016972Y012120D01*
X017018Y012141D01*
X017065Y012157D01*
X017113Y012170D01*
X017163Y012179D01*
X017212Y012184D01*
X017263Y012185D01*
X017313Y012182D01*
X017362Y012175D01*
X017411Y012164D01*
X017459Y012149D01*
X017505Y012131D01*
X017550Y012109D01*
X017593Y012083D01*
X017634Y012054D01*
X017673Y012022D01*
X017709Y011987D01*
X017741Y011949D01*
X017771Y011909D01*
X017798Y011866D01*
X017821Y011822D01*
X017840Y011776D01*
X017856Y011728D01*
X017868Y011679D01*
X017876Y011630D01*
X017880Y011580D01*
X017880Y011530D01*
X017876Y011480D01*
X017868Y011431D01*
X017856Y011382D01*
X017840Y011334D01*
X017821Y011288D01*
X017798Y011244D01*
X017771Y011201D01*
X017741Y011161D01*
X017709Y011123D01*
X017673Y011088D01*
X017634Y011056D01*
X017593Y011027D01*
X017550Y011001D01*
X017505Y010979D01*
X017459Y010961D01*
X017411Y010946D01*
X017362Y010935D01*
X017313Y010928D01*
X017263Y010925D01*
X017212Y010926D01*
X017163Y010931D01*
X017113Y010940D01*
X017065Y010953D01*
X017018Y010969D01*
X016972Y010990D01*
X016928Y011014D01*
X016886Y011041D01*
X016846Y011071D01*
X016809Y011105D01*
X016775Y011142D01*
X016743Y011181D01*
X016715Y011222D01*
X016690Y011266D01*
X016669Y011311D01*
X016652Y011358D01*
X016638Y011406D01*
X016628Y011455D01*
X016622Y011505D01*
X016620Y011555D01*
D11*
X005894Y013305D03*
X003531Y013305D03*
X004713Y015155D03*
D12*
X020125Y014930D03*
X020125Y013305D03*
X020125Y011680D03*
X020750Y007930D03*
X020750Y005055D03*
X020750Y002180D03*
D13*
X014000Y004055D03*
X013000Y004055D03*
X012000Y004055D03*
X012000Y005055D03*
X013000Y005055D03*
X014000Y005055D03*
D14*
X014000Y006930D03*
X014000Y007680D03*
X014000Y009055D03*
X014000Y009805D03*
X014000Y010555D03*
X012625Y012180D03*
X011875Y012180D03*
X011125Y012180D03*
X010375Y012180D03*
X008875Y012180D03*
X006500Y009305D03*
X008125Y005305D03*
X008125Y004555D03*
X008125Y003805D03*
X009250Y002430D03*
X010000Y002430D03*
D15*
X009625Y012180D03*
X013375Y013430D03*
X013375Y014930D03*
D16*
X013375Y013430D01*
X012000Y009805D02*
X009625Y012180D01*
X012000Y009805D02*
X012000Y007055D01*
X014000Y005055D01*
D17*
X016125Y004430D03*
X015500Y006930D03*
X016125Y007305D03*
X015500Y010430D03*
X016125Y001555D03*
D18*
X015500Y006930D02*
X015500Y010430D01*
D19*
X016125Y007305D02*
X020125Y007305D01*
X020750Y007930D01*
X020750Y005055D02*
X020125Y004430D01*
X016125Y004430D01*
X016125Y001555D02*
X020125Y001555D01*
X020750Y002180D01*
M02*
